<svg xmlns="http://www.w3.org/2000/svg" viewBox="0 0 176 241"><path fill="transparent" d="M92 242H1.027V1.1h175.82V242H92M68.923 119.916s-.019-.137-.566.038c-.192.32-.384.64-.467.977 0 0-.022-.107-.741.411-.161 1.646-.461 3.293-.462 4.939-.02 26.593-.013 53.185.033 79.778.003 1.631.387 3.261.864 5.561 1.832-.34 3.92-.229 5.456-1.094a1707.486 1707.486 0 0032.034-18.54c4.077-2.414 7.827-5.389 11.93-7.752 6.61-3.806 13.39-7.315 20.602-11.071.266-.21.53-.418.835-.843 0 0 .028.217.64.021.498-.381.995-.763 1.73-1.1 0 0 .149-.19.723-.209.245-.272.49-.544.607-.851 0 0 .036.127.656.002.496-.358.99-.717 1.878-1.097 0 0 .312-.24.82-.25.213-.252.426-.504.561-.788 0 0 .001.084.633-.012.855-.59 1.71-1.181 2.43-1.864 0 0 .074.144.668.033.459-.355.917-.71 1.285-1.127 0 0 .024.107.565.03.232-.262.465-.523.494-1.033 0 0 .235.218.879-.26.289-6.321.92-12.653.723-18.96-.099-3.156-2.606-3.333-5.236-1.533 0 0-.185.115-.718.33-.618.44-1.235.882-2.538 1.441l-58.68 33.912-1.358-.8c.805-3.676.36-8.997 2.642-10.728 7.834-5.945 16.538-10.778 25.07-15.76 7.954-4.644 16.112-8.937 24.774-13.542.475-.364.951-.729 1.355-1.14 0 0 .002.086.53.078.27-.208.54-.416.9-.846 0 0-.046.235.506.065.422-.36.843-.72 1.142-1.156 0 0 .059.132.654.02.465-.35.93-.702 1.307-1.094 0 0-.002.098.605.032.474-.352.947-.704 1.35-1.104 0 0 .004.086.524.07.271-.196.542-.391.85-.753 0 0 .04.165.581-.012.427-.348.854-.696 1.145-1.13 0 0 .075.142.667.023.457-.358.913-.717 1.28-1.125 0 0 .012.1.764-.096 3.77-5.44 2.21-11.27 1.183-17.664.004-.407.008-.813.496-1.456a5.532 5.532 0 01-.332-1.542s-.149-.3-.078-.954c-1.736.18-3.472.36-5.143.593 0 0-.012-.083-.558-.045-.254.24-.507.48-.606.643l-.812.18c-1.094.716-2.189 1.432-3.954 2.28l-55.429 32.127c-1.803-8.687-1.354-10.496 3.799-13.494 17.17-9.991 34.421-19.846 51.589-29.843 14.675-8.546 11.608-4.408 11.917-20.109.052-2.66-.965-5.342-1.489-8.014-2.547.9-5.318 1.418-7.604 2.762-12.836 7.551-25.475 15.438-38.337 22.944-12.048 7.03-24.29 13.73-37.024 20.607-.227.293-.454.585-.544.894M38.911 55.883s-.02-.098-.6.013c-.454.357-.908.714-1.322 1.11 0 0-.015-.054-.688.008-1.485.953-2.971 1.907-4.37 2.901 0 0-.013-.095-.6-.007-.438.367-.876.734-1.33 1.09 0 0 .004.017-.535.06-.222.265-.444.53-.573.833 0 0-.009-.1-.758.108-.73 1.59-1.985 3.144-2.092 4.774-.292 4.48-.236 8.996-.066 13.488.173 4.574 1.534 5.126 6.025 2.737 0 0 .004.015.682-.025 1.483-.956 2.967-1.913 4.368-2.913 0 0 .015.093.583.002.433-.366.867-.733 1.337-1.054 0 0 .002-.06.643-.071.852-.624 1.705-1.247 3.247-1.958 12.185-7.073 24.375-14.14 36.555-21.222 6.747-3.924 12.75-2.585 18.112 4.281-1.301.773-2.56 1.54-3.837 2.277-20.99 12.134-41.946 24.332-63.014 36.331-3.5 1.994-4.79 4.376-4.76 8.38.164 22.322.71 44.673-.195 66.96-.454 11.166 2.63 18.263 13.145 22.534 6.143 2.495 7.183 2.367 7.184-4.389.005-24.657.082-49.314-.089-73.97-.023-3.438 1.041-5.455 3.938-7.086 9.983-5.623 19.886-11.386 29.808-17.117 17.959-10.374 35.928-20.73 53.847-31.173 4.446-2.59 4.645-4.065.933-6.238-10.74-6.285-21.577-12.404-32.797-19.128-3.684-2.162-7.358-4.343-11.057-6.48-3.464-2.001-6.813-2.196-9.61.933 0 0-.273-.15-.95-.014-2.105 1.3-4.211 2.6-6.186 3.986 0 0-.074-.138-.656-.021-.446.364-.892.728-1.27 1.156 0 0-.012-.093-.612-.065-.467.349-.935.697-1.366 1.092 0 0-.017-.055-.692.011-1.469.963-2.938 1.926-4.332 2.977 0 0-.037-.11-.703.011-1.483.944-2.967 1.889-4.355 2.867 0 0-.015-.1-.625 0-.48.356-.96.713-1.914 1.12 0 0-.326.347-.915.555-1.197.78-2.393 1.558-3.507 2.388 0 0-.012-.096-.596-.027-.456.357-.911.715-1.347 1.092 0 0-.016-.022-.71-.058-1.49.967-2.98 1.935-4.378 2.938 0 0-.017-.098-.612-.002-.459.356-.917.712-1.316 1.124 0 0-.027-.076-.664.002-.845.601-1.69 1.202-2.432 1.837 0 0-.026-.106-.645-.02-.474.341-.95.683-1.33 1.062z"/><path fill="#0358A7" d="M70.046 118.99c12.156-6.845 24.397-13.544 36.445-20.575 12.862-7.506 25.501-15.393 38.337-22.944 2.286-1.344 5.057-1.863 7.604-2.762.524 2.672 1.541 5.353 1.489 8.014-.309 15.7 2.758 11.563-11.917 20.109-17.168 9.997-34.418 19.852-51.59 29.843-5.152 2.998-5.6 4.807-3.798 13.494 18.588-10.773 37.009-21.45 56.18-32.167 1.782-.82 2.814-1.601 3.846-2.382 0 0 .169-.038.373.015.453-.209.7-.471.948-.734 0 0 .012.083.407.085 1.823.02 3.25.04 4.677.059 0 0 .149.3.071.826-.076.767-.075 1.01-.074 1.252-.004.407-.008.813-.288 1.812-.736 6.151-1.198 11.71-1.66 17.269 0 0-.01-.1-.3-.1-.72.415-1.152.83-1.583 1.243 0 0-.075-.142-.353-.157-.655.43-1.032.877-1.409 1.322 0 0-.04-.165-.334-.156-.554.259-.814.51-1.075.76 0 0-.004-.086-.29-.07-.748.396-1.21.775-1.67 1.154 0 0 0-.098-.287-.101-.73.4-1.172.805-1.614 1.209 0 0-.059-.132-.341-.14-.66.44-1.036.887-1.412 1.334 0 0 .045-.235-.28-.189-.584.3-.843.554-1.102.808 0 0-.002-.086-.3-.063-.749.44-1.2.857-1.651 1.274-8.068 4.448-16.226 8.741-24.18 13.385-8.532 4.982-17.236 9.815-25.07 15.76-2.281 1.731-1.837 7.052-2.642 10.728l1.358.8c19.56-11.304 39.12-22.608 59.387-33.956 1.26-.567 1.812-1.09 2.364-1.612 0 0 .185-.115.66.073 1.595 1.302 3.64 2.385 3.678 3.537.195 5.739-.137 11.495-.284 17.246 0 0-.235-.218-.417-.091-.406.412-.63.697-.853.983 0 0-.024-.107-.308-.096-.72.417-1.158.822-1.595 1.227 0 0-.073-.144-.35-.152-1.114.65-1.95 1.31-2.786 1.968 0 0 0-.084-.203-.028-.514.197-.736.425-.867.742 0 0-.312.24-.852.235-1.013.406-1.485.816-1.958 1.227 0 0-.036-.127-.249-.081-.464.304-.716.564-.968.823 0 0-.149.19-.649.143-.947.417-1.394.88-1.842 1.344 0 0-.028-.217-.341-.171-.551.336-.79.627-1.027.918-6.708 3.635-13.487 7.144-20.096 10.95-4.104 2.363-7.854 5.338-11.93 7.753a1707.486 1707.486 0 01-32.035 18.539c-1.537.865-3.624.754-5.365.42.125-30.49.159-60.306.193-90.122 0 0 .022.107.242.01.412-.416.603-.735.794-1.055 0 0 .02.137.217.065.44-.332.682-.593.925-.853z"/><path fill="#02AD29" d="M102.113 37.958c10.8 6.185 21.636 12.304 32.376 18.59 3.712 2.172 3.513 3.646-.933 6.237-17.919 10.443-35.888 20.799-53.847 31.173-9.922 5.731-19.825 11.494-29.808 17.117-2.897 1.631-3.961 3.648-3.938 7.086.171 24.656.094 49.313.089 73.97-.001 6.756-1.041 6.884-7.184 4.389-10.515-4.27-13.6-11.368-13.145-22.533.906-22.288.359-44.639.195-66.962-.03-4.003 1.26-6.385 4.76-8.379C51.746 86.647 72.701 74.45 93.692 62.315c1.276-.738 2.536-1.504 3.837-2.277-5.361-6.866-11.365-8.205-18.112-4.281-12.18 7.083-24.37 14.149-37.264 21.241-1.532.663-2.356 1.307-3.18 1.95 0 0 0 .06-.322.055-.743.38-1.163.765-1.584 1.15 0 0-.015-.093-.364-.106-1.799.98-3.248 1.973-4.697 2.966 0 0-.004-.015-.382-.027-1.59-.554-3.867-1.125-3.853-1.633.18-6.526.688-13.043 1.113-19.563 0 0 .009.1.224.048.443-.31.67-.566.897-.823 0 0-.004-.017.312-.026.744-.396 1.172-.782 1.6-1.169 0 0 .013.095.363.115 1.798-.981 3.246-1.982 4.694-2.983 0 0 .015.054.312.03.733-.414 1.17-.806 1.606-1.197 0 0 .02.098.303.103.744-.381 1.205-.767 1.666-1.153 0 0 .026.106.347.14 1.13-.626 1.939-1.288 2.748-1.95 0 0 .027.077.317.05.734-.415 1.177-.804 1.621-1.193 0 0 .017.098.35.125 1.801-.958 3.27-1.943 4.739-2.929 0 0 .016.022.318.01.744-.39 1.186-.77 1.629-1.15 0 0 .012.097.327.11 1.47-.86 2.626-1.734 3.781-2.609 0 0 .326-.347.892-.368 1.03-.414 1.494-.807 1.958-1.2 0 0 .015.1.344.104 1.783-.994 3.238-1.992 4.692-2.99 0 0 .037.11.375.093 1.782-1.02 3.225-2.024 4.67-3.027 0 0 .016.055.31.038.752-.378 1.212-.74 1.672-1.103 0 0 .013.093.302.072.714-.431 1.138-.842 1.562-1.252 0 0 .074.138.4.16 2.395-1.367 4.466-2.756 6.537-4.145 0 0 .273.15.548.152 3.575-.314 6.59-1.734 9.99 1.232 2.85 2.486 7.16 3.3 10.823 4.853z"/><path fill="#014A8B" d="M67.508 121.083c.326 29.557.292 59.373.032 89.528-.433-1.29-.817-2.92-.82-4.552-.046-26.593-.053-53.185-.033-79.778 0-1.646.3-3.293.821-5.198z"/><path fill="#0CA440" d="M28.51 61.895c-.05 6.415-.558 12.932-.739 19.458-.014.508 2.263 1.08 3.86 1.639-4.12 2.395-5.481 1.843-5.654-2.731-.17-4.492-.226-9.008.066-13.488.107-1.63 1.361-3.185 2.467-4.878z"/><path fill="#10A940" d="M101.903 37.689c-3.453-1.285-7.764-2.098-10.614-4.584-3.4-2.966-6.414-1.546-10.128-1.3 2.661-3.062 6.01-2.867 9.474-.866a377.403 377.403 0 0111.268 6.75z"/><path fill="#206295" d="M152.688 164.054c-.175-5.512.157-11.268-.038-17.007-.039-1.152-2.083-2.235-3.572-3.562 2.049-1.963 4.556-1.786 4.655 1.37.198 6.307-.434 12.639-1.045 19.199z"/><path fill="#165B97" d="M151.473 130.105c.085-5.46.547-11.019 1.316-16.866 1.27 5.497 2.83 11.327-1.316 16.866z"/><path fill="#10A940" d="M80.414 31.79a47.205 47.205 0 01-6.266 4.034c1.716-1.365 3.822-2.666 6.266-4.034z"/><path fill="#0CA440" d="M32.345 82.993c1.11-.973 2.56-1.966 4.4-2.924-1.094.991-2.578 1.948-4.4 2.924zm4.293-26.01c-1.112.97-2.56 1.97-4.401 2.932 1.093-.994 2.579-1.948 4.4-2.932z"/><path fill="#10A940" d="M69.63 37.984c-1.106.97-2.55 1.974-4.369 2.95 1.094-.99 2.563-1.954 4.37-2.95z"/><path fill="#0BA73D" d="M64.591 40.945c-1.121.938-2.576 1.936-4.407 2.913 1.107-.964 2.59-1.909 4.407-2.913zM50.636 48.96c-1.122 1.004-2.59 1.99-4.439 2.93 1.112-1.013 2.602-1.98 4.439-2.93z"/><path fill="#165B97" d="M153.083 108.718c-1.463.307-2.89.288-4.745.241 1.308-.208 3.044-.388 4.745-.241z"/><path fill="#0BA73D" d="M56.743 45.443c-.86.77-2.016 1.645-3.528 2.48.84-.818 2.037-1.597 3.528-2.48z"/><path fill="#165B97" d="M146.32 109.69c-.71.71-1.742 1.492-3.19 2.246.68-.742 1.775-1.458 3.19-2.245z"/><path fill="#0BA73D" d="M43.637 52.965c-.49.622-1.3 1.284-2.48 1.894.472-.653 1.317-1.254 2.48-1.894z"/><path fill="#0CA440" d="M39.294 78.943c.503-.638 1.327-1.282 2.514-1.901-.488.648-1.34 1.271-2.514 1.9z"/><path fill="#206295" d="M146.373 168.084c.52-.61 1.356-1.27 2.536-1.874-.51.645-1.365 1.235-2.536 1.874zm1.673-24.54c-.286.416-.838.938-1.755 1.446.253-.456.87-.897 1.755-1.446z"/><path fill="#165B97" d="M137.392 138.254c.154-.339.605-.756 1.39-1.173-.142.365-.618.73-1.39 1.173z"/><path fill="#206295" d="M149.49 166.26c.14-.349.577-.754 1.343-1.14-.129.375-.587.73-1.343 1.14z"/><path fill="#165B97" d="M140.704 136.417c.1-.362.476-.81 1.197-1.211-.078.406-.5.766-1.197 1.21zm1.775-1.165c.144-.348.586-.753 1.36-1.133-.133.375-.598.726-1.36 1.133zm1.906-1.085c.157-.346.619-.725 1.402-1.096-.152.36-.625.71-1.402 1.096zm3.337-1.744c.106-.356.483-.802 1.206-1.19-.08.406-.508.754-1.206 1.19zm1.787-1.135c.135-.355.566-.769 1.331-1.16-.122.383-.578.742-1.331 1.16z"/><path fill="#0BA73D" d="M59.583 43.822c-.159.342-.623.735-1.416 1.123.15-.36.631-.717 1.416-1.123z"/><path fill="#206295" d="M142.487 170.245c.163-.348.635-.758 1.452-1.153-.151.374-.646.733-1.452 1.153zm-3.712 2.195c.142-.367.589-.83 1.418-1.269-.117.407-.614.789-1.418 1.268z"/><path fill="#0CA440" d="M37.35 80.107c.138-.339.558-.723 1.282-1.126-.13.348-.564.715-1.281 1.126z"/><path fill="#10A940" d="M73.524 35.764c-.133.352-.557.763-1.305 1.162.122-.375.568-.74 1.305-1.162zM71.651 36.9c-.16.348-.62.71-1.391 1.066.156-.355.624-.703 1.391-1.066z"/><path fill="#0CA440" d="M31.624 59.864c-.135.343-.563.73-1.3 1.13.13-.352.569-.72 1.3-1.13z"/><path fill="#0BA73D" d="M38.601 55.84c-.146.336-.582.728-1.335 1.123.137-.353.591-.71 1.335-1.123zm1.951-1.062c-.152.343-.613.729-1.404 1.09.145-.364.62-.706 1.404-1.09zm5.044-2.948c-.146.341-.59.73-1.352 1.118.138-.358.596-.714 1.352-1.118zm7.042-3.956c-.15.344-.593.723-1.347 1.104.144-.355.6-.713 1.347-1.104z"/><path fill="#206295" d="M145.24 168.84c-.122-.31.1-.54.654-.72.027.212-.186.464-.654.72zm-3.993 2.201c-.035-.25.217-.51.745-.797.032.244-.213.516-.745.797zm-3.893 2.182c-.015-.23.223-.52.754-.75.029.272-.236.48-.754.75zm14.012-8.077c-.047-.247.177-.532.684-.82.052.259-.18.52-.684.82z"/><path fill="#165B97" d="M139.31 137.117c-.005-.25.254-.503.794-.693.01.273-.26.481-.794.693zm6.992-4.009c0-.243.26-.493.798-.67.004.27-.267.466-.798.67z"/><path fill="#014A8B" d="M68.63 119.867c.083.232-.108.55-.574.958-.083-.232.11-.551.575-.958zm1.126-.861c.047.245-.195.506-.704.83-.039-.23.188-.521.704-.83z"/><path fill="#165B97" d="M153.286 111.005c-.243-.124-.244-.367-.208-.972.175.043.313.449.208.972zm-5.596-2.085c.025.244-.222.506-.752.753-.028-.255.225-.494.752-.753z"/><path fill="#0CA440" d="M29.736 61.036c.042.236-.185.492-.675.783-.04-.231.183-.496.675-.783z"/></svg>