<svg version="1.0" xmlns="http://www.w3.org/2000/svg" width="562.667" height="321.333" viewBox="0 0 422 241"><g fill="#00f"><path d="M67 38.1c-8.5 5-18.4 10.7-22 12.7-9.7 5.3-17.3 10.2-18.7 12-1.3 1.6-1.8 15.7-.7 18.6.9 2.4 3.2 1.9 10.3-2.3 8.2-4.8 23.2-13.4 37.8-21.8L85 50.8l6.4 3.6c4.5 2.5 6.6 3.2 6.9 2.4.4-1 .6-1 .6-.1.1 1.5 2.1 1.8 2.1.3 0-.5-1.4-2.4-3.2-4.2-1.8-1.8-2.9-2.6-2.6-1.8.4 1.1-.2 1.5-1.9 1.6-2.2.2-2.3.1-.6-1.1 1.7-1.3 1.6-1.4-1-2.4-3.5-1.4-5.4-1.4-5.9-.2-.4 1.3-8 1.7-9.8.6-.9-.5-1.1-.4-.6.3.4.7.2 1.2-.4 1.2-.6 0-1.6-1.1-2.2-2.5-.8-1.7-1.8-2.5-3.2-2.3-2.9.4-3.1 2.6-.2 3.4 1.3.3 2.7 1.2 3 2 .3.7 1.2 1.1 2.1.8 1.1-.4 1.4-.2.9.9-.4 1.1-1.5 1.4-4 1-2.2-.4-3.4-.2-3.4.6 0 .6-.9 1.1-2 1.1-1.5 0-2 .7-2 2.6 0 2.1-.4 2.4-2 1.9-1.1-.4-2-.2-2 .4 0 .6.5 1.1 1.2 1.1.6 0 .3.6-.8 1.4-2.2 1.7-4.5.3-2.6-1.6 1.5-1.5 1.6-2.8.2-2.8-.5 0-1.2 1-1.5 2.3-.4 1.3-1.9 3.1-3.5 4-3.5 2.1-4.1 2.1-3.4-.1.5-1.4.4-1.5-.5-.2-1.8 2.5-1.3 3.3 1.6 2.7 2.5-.5 2.6-.4.9.8-1 .8-2.4 1.1-3.2.8-1.5-.6-4.6 1.5-3.9 2.6.6 1-10.4 6.3-11.6 5.6-.5-.4-.9.1-.9 1 0 1-.5 1.3-1.2.9-.6-.4-.8-.3-.5.3.9 1.5-1.6 2.3-3.4 1.2-1-.6-1.1-.9-.1-.9.9 0 1.1-2.2.7-9l-.5-9.1 2.3 1.2c1.2.7 2.6 1.8 3 2.5.4.8 1.8 1.3 3 1.3 1.6-.1 1.7-.3.5-.6-2.1-.5-3.2-3.3-1.4-3.3.9 0 1.2-.7 1-1.8-.3-.9.2-2.6 1.1-3.7.8-1.1 1.4-1.5 1.3-.9-.2.7.1 1.1.7 1 .5 0 .9-.7.7-1.4-.2-.7.7-1.2 2.3-1.2 1.4 0 2.5.4 2.5 1 0 .5.7 1 1.6 1 1.1 0 1.4-.5 1-1.6-.3-.9-.6-1.7-.6-2 0-.2-.8-.1-1.7.2-1.6.5-1.6.4 0-.6 1.4-.9 2.2-.9 3.4.2 1.4 1.1 1.6 1.1 1-.4-.4-1.2-.2-1.5.9-1.1 2.7 1 1.2 2.9-1.9 2.4-.5-.1-.6.3-.3.8.3.4 1.7.8 3.1.8 2.2 0 2.5-.4 2.5-3.2 0-3.8 1.6-5.4 4.7-4.9 1.8.3 2.1 0 1.7-2.1-.5-2.9.1-3.1 2.3-1 .8.9 1.8 1.3 2.1 1 .4-.3 0-1-.8-1.5-1.2-.8-1.1-1 .6-1 1.2 0 3.5-.5 5.2-1.1 2.6-.9 3-1.4 2.2-2.9-.7-1.3-.6-2 .6-2.4 1.2-.5 1.5-.2 1 .9-.3.9-.2 1.3.4 1 .6-.3 1-.1 1 .4 0 .6.6 1.1 1.4 1.1 2 0 4.8-2.9 4-4.2-.4-.7-1-.4-1.6.6-1 1.8-3.8 2.2-3.8.5 0-.6.7-.9 1.5-.5.8.3 1.4.2 1.4-.2-.4-2.7.1-3.4 1.7-2.1 1.4 1.1 1.8 1 3-.5 1.6-2.3 5-2.6 8.7-.9 3.4 1.7 3.6 2.6.2 1.3-1.6-.6-2.5-.6-2.5 0s.8 1 1.8 1.1c1.6 0 1.6.1 0 .7-1.3.5-1.5 1.1-.8 2.2.9 1.3 1.1 1.3 2 0 .6-1 1-1.1 1-.3 0 .9 1.2 1.1 4.1.7 2.8-.4 3.9-.3 3.5.4-.4.6-1.3.9-2.1.5-2.2-.8-1.8 1.3.9 4.1 2.6 2.9 4.8 3.3 6.5 1.3.8-1 .7-1.7-.2-2.7-1-1.2-.9-1.2.5-.1 1.3.9 1.5 1.8.8 3.5-.8 2.2-.7 2.3 1.5 1.2 1.3-.6 2.1-1.4 1.9-1.7-.2-.4.6-.5 1.8-.1l2.2.5-2.2.8c-1.2.5-2.2 1.1-2.2 1.3 0 .3.7.3 1.5 0 1-.4 1.5 0 1.5 1.5 0 2.3 1.4 2.8 2.6 1 .3-.6 0-1.6-.7-2.1-1.1-.8-1-.8.4-.4 1 .3 2.3.6 2.8.6s.9.9.9 2.1c0 1.5.4 1.9 1.9 1.4 2.3-.7 3.7 1 1.5 1.9-.8.3-1.2 1-.9 1.6.3.5-.1 1-1 1-1 0-1.5-.6-1.2-1.3.2-.6-.2-1.8-.9-2.5-1.1-1-1.5-.8-2.4.7-1.5 2.9-1.2 3.8.5 1.5 1.5-1.8 1.6-1.8 1.3.6-.2 1.7.2 2.6 1.4 2.8 2 .4 5.4-2.4 3.7-3-.6-.2 0-.9 1.5-1.6 1.7-.7 2.6-.8 2.6-.1 0 .6.4.8.9.5.5-.3 1.1 0 1.4.8.6 1.4-.9 1.6-3 .3-.8-.5-.8-.1 0 1.7 1 2 1.7 2.3 4.9 2 3.2-.3 3.6-.1 2.6 1-1 1-1.8 1.1-3.3.3-1.8-.9-1.9-.9-.6.6 1.1 1.5 1.1 1.7-.2 1.7-.8 0-2.4.3-3.4.6-1.4.4-1.5.4-.4-.4 1.5-1.1.7-3.2-1.4-3.2-.9 0-1.3 1.2-1.2 3.7.2 3-.2 3.8-1.8 4.1-2 .3-2 .3-.1-1.3 1.1-.8 1.5-1.5.9-1.5-1.3 0-3.9 3-2.7 3.1 2.1.1-4.5 2.1-8.4 2.6-3.7.4-4.4.2-4.9-1.5-.3-1.3-1.1-1.8-2.4-1.5-1 .3-3.3 0-5-.6-2.4-.8-3.6-.8-4.6.1-1.2 1-1.2 1.3.1 2 .9.5 2 .7 2.5.3.5-.3 1.2-.1 1.6.5.3.5 2 1 3.7 1 2.4 0 2.9.3 2.4 1.6s-.2 1.5 1.4 1.1c1.1-.3 2 0 2 .6 0 .8.4.7 1.2-.1.7-.7 1.7-1.2 2.3-1.2.5 0-.3.9-1.9 1.9-1.7 1.1-3.5 1.7-4 1.3-1.7-1-3.7-1.1-3-.1.3.5 0 .9-.5.9-.6 0-1.1-.5-1.1-1 0-.6-.5-1-1.1-1-.6 0-.9.7-.5 1.5.3 1-.1 1.5-1.2 1.6-1 0-1.2.3-.5.6.7.2 2.7-.2 4.5-1.1l3.3-1.6-2.9 2.4c-1.6 1.3-3.4 2.2-4 2-.6-.2-2.4.7-4 2.1-1.6 1.4-3.4 2.5-3.9 2.5-.6 0-.3-.6.8-1.3 1.4-1.1 1.5-1.6.5-2.2-.9-.6-1.1-.4-.5.5.6 1 .4 1.2-.8.7-1.1-.4-1.7-.1-1.7.8 0 .8-.7 1.5-1.5 1.5s-1.5.4-1.5 1c0 1.5-4.3 3.5-4.8 2.1-.7-2-2-1.2-1.5.9.6 2.3 0 2.5-2.9.9-1.6-.9-2.3-.8-2.9.2-.6 1-.9 1.1-.9.1 0-1.8-3.7-1.5-4.4.4-.9 2.3-.6 2.4 3.9 1.4 4.3-1 8.5.3 5.2 1.5-.9.4-2.4.5-3.1.2-1-.4-1.3-.1-.9.9.3.8-.1 1.4-1.1 1.4-.9 0-1.6.4-1.6 1 0 .5-1.1 1-2.5 1s-2.5-.5-2.5-1.1c0-.5-.5-.7-1.1-.4-.6.5-.4 1.2.8 2.1 1 .8 1.4 1.4.8 1.3-1.5-.2-5.5 1.3-5.5 2 0 .4-1.2.8-2.6.9-1.4.1-3.3.6-4.2 1.2-1.5.8-1.5.9.3 1 1.5 0 1.6.3.7 1.2-1.3 1.3-5.4 1.9-4.6.7.2-.4 0-1.1-.6-1.4-.6-.4-1-.3-.9.2.5 2.6-.2 4.2-1.6 3.7-1.9-.8-4.8 1.5-4.1 3.3.3.7.3 1.3 0 1.3-.2 0-.9-1-1.3-2.3-.7-1.6-.9-.9-.8 3.1.1 4.3.4 5.2 1.6 4.7 1.1-.3 1-.1-.2.9-1.8 1.4-1.9 3.1-1.3 32.3.3 16.9.8 32.9 1.2 35.4.6 4.6.5 4.7-2.5 5.1-2.6.4-3.2.1-3.7-1.8-.3-1.2-1.2-2.5-2-2.8-.7-.3-1.3-.2-1.1.2.2.7-.6 1.2-1.8 1.2-.3 0-.1-.9.5-2.1.8-1.5.8-2.4 0-3.4-.7-.9-.9-2.6-.5-4.5.5-2.4.4-2.9-.9-2.4-.9.3-1.2 1.2-.9 2.2.4.9.3 1.4-.1 1-1.3-1.1-.7-67.1.6-68.3.7-.7.9 1.7.5 8-.5 8.2-.5 8.4.4 3 1.1-7.2.8-13.1-.7-12.8-.7.1-.9-.8-.6-2.3.3-1.9.7-2.2 1.3-1.2.7 1 .9.9.9-.5 0-3.6 1.9-1.5 2.3 2.5l.4 4.3.1-4.3c.1-2.3.7-4.2 1.2-4.2 2 0 .9-1.5-2-2.8-1.7-.8-2.7-1.8-2.4-2.4.4-.7.9-.6 1.4.1.5.9 1.4.9 3.4 0 2.3-1.1 2.9-1 3.7.2 1.2 1.9 1.2.2-.1-2.1-.7-1.3-.6-2.1.5-3 .8-.7 1.5-.9 1.5-.4 0 .4.6-.1 1.4-1.2.8-1 1.8-1.6 2.2-1.2.4.4.1 1.6-.7 2.5-1.1 1.5-1.1 1.6.1.5 1.8-1.5 3.4-1.6 2.4 0-.4.7-.3.8.5.4.6-.4.9-1.1.6-1.6-.3-.4.1-1.3.9-1.9 1.1-.9 1.8-.8 3.2.6 1 1 2.7 1.9 3.9 2 3.2.2 2.7-2.7-.6-3.4-2.9-.6-4.5-2.8-2.8-3.9.6-.3 1.6-.1 2.2.5 1.7 1.7 6.7 1.4 6.7-.4 0-2 3.7-3.9 4.3-2.2.2.6.7.9 1.1.6 1.2-1.1-.6-4-2.1-3.5-.8.4-1.1.1-.7-.5.6-1.1 5-.8 8.9.7 1.6.6 1.8.4.8-.6-1-1.1-.9-1.6.5-2.6 1.6-1.2 1.6-1.3-.1-1.9-1.7-.7-1.7-.8 0-2 1.4-1.1 1.9-1 2.9.3.9 1.3 1.5 1.4 2.6.4.8-.6 1.8-.9 2.2-.5.3.4 1.3-.2 2.2-1.3.8-1 1.2-1.3.8-.5-.4.9-.2 1.2.7.9 1.5-.6 1.5-1 .4-4.5-.5-1.8-.3-2.2.9-1.7.9.3 1.3 1 1 1.5-.3.5 0 .9.6.9.7 0 .9-.8.5-2-.5-1.4-.2-2 1-2 .8 0 1.8-.6 2.1-1.4.3-.8 1.5-1.1 3.1-.8 1.7.3 2.4.1 1.9-.6-.7-1.2 2.8-3.5 3.8-2.5.3.3.6.1.6-.5 0-.5-.6-1.2-1.2-1.4-1.1-.4-43.8 23.5-56.5 31.5-2.4 1.5-4.5 2.7-4.7 2.7-2 0-12.7 7.7-13.1 9.4-.8 3.3-.1 82.9.8 84.6 1.4 3 16.6 11.2 17.9 9.7.1-.1.5-19.3.8-42.6l.5-42.4 26-14.9c39.8-22.9 58.7-34 61.8-36.1 2.8-1.9 2.8-2 1-3.7-3.4-3.4-47.1-28-49.4-28-1.3.1-9.4 4.2-17.9 9.1zm2 1.9c-.8.5-1.7.7-1.9.4-.3-.3.1-.9.9-1.4.8-.5 1.7-.7 1.9-.4.3.3-.1.9-.9 1.4zm-16.6 9.5c-.7 1.6-2.4 2.1-2.4.6 0-.8.7-1.3 2.7-2 .1-.1 0 .6-.3 1.4zM70 57c0 .6-.8 1.4-1.7 1.7-1 .4-2.1 1.1-2.5 1.7-.5.7-.8.5-.8-.4 0-1.3.8-1.9 4.8-3.9.1 0 .2.4.2.9zm-36.5 4.2c.5-.4.5-.1.1.5-1 1.8-2.3 1.6-3-.3-.5-1.3-.4-1.4.7-.6.8.7 1.8.8 2.2.4zM56 66c0 .5-.5 1-1.1 1-.5 0-.7-.5-.4-1 .3-.6.8-1 1.1-1 .2 0 .4.4.4 1zm25.7 4.4c0 .8-.6 1.2-1.4.9-.8-.3-1.3.3-1.4 1.8-.1 2-.2 2.1-.6.5-.3-1.2.2-2.5 1.3-3.3 2.2-1.6 2.1-1.6 2.1.1zM71 78.7c0 1.7-1.5 1.6-3-.1-.9-1.2-.8-1.5.9-1.3 1.2.1 2.1.7 2.1 1.4zm-9 4.2c0 2.3-6.4 4.9-7.5 3.1-.3-.5.9-1.6 2.7-2.4 4-1.7 4.8-1.9 4.8-.7zm-14 7.5c0 1.1-1.9 1.5-2.5.6-.3-.5.1-1 .9-1 .9 0 1.6.2 1.6.4zm-17.5 10.5c.3.6-.3 1.5-1.4 2-1.8 1-2.1.3-1.2-2.7.2-.6 2-.1 2.6.7zM43 152c0 15.3-.4 24-1 24s-1-8.7-1-24 .4-24 1-24 1 8.7 1 24zm-14 30c0 .5-.5 1-1.1 1-.5 0-.7-.5-.4-1 .3-.6.8-1 1.1-1 .2 0 .4.4.4 1zm1.4 3.5c-.4.8-1.2 1.5-1.8 1.5-.7 0-1.3-.7-1.3-1.5s.8-1.5 1.8-1.5c1.2 0 1.6.5 1.3 1.5z"/><path d="M86 41c0 .5.5 1 1 1 .6 0 1-.5 1-1 0-.6-.4-1-1-1-.5 0-1 .4-1 1zm-12.7 1.7c-2.2.8-1.4 2.1 1.1 1.9 1.4 0 2.2-.6 1.9-1.4-.5-1.3-1-1.4-3-.5zm4.8 5.5c0 1.3.3 1.7.6 1 .2-.6.9-1 1.4-.7.5.4.6-.1.3-.9-.9-2.4-2.4-1.9-2.3.6zm-23 1.4c0 1.1.3 1.4.6.6.3-.7.2-1.6-.1-1.9-.3-.4-.6.2-.5 1.3zm3.3 7.2c.9 1.5 4.8 2.3 4.3.9-.2-.7-1.4-1.4-2.6-1.5-1.3-.2-2.1.1-1.7.6zm43.6.6c0 .9.5 1.6 1 1.6.6 0 1-.4 1-.9 0-.6-.4-1.3-1-1.6-.5-.3-1 .1-1 .9zm10.3 2.1c0 .8.6 1.5 1.4 1.5.7 0 1.3-.7 1.3-1.5s-.6-1.5-1.3-1.5c-.8 0-1.4.7-1.4 1.5zM40 60c0 .5.5 1 1 1 .6 0 1-.5 1-1 0-.6-.4-1-1-1-.5 0-1 .4-1 1zm-3.3 1.1c.7.7 1.5 1 1.8.7.3-.3-.2-.9-1.2-1.2-1.4-.6-1.5-.5-.6.5zm65.7 0c-.3.6-.1 1.6.4 2.1.8.8 1.1.5.9-1.1-.1-2.4-.3-2.5-1.3-1zm-44.4 2c0 .5.5.7 1 .4.6-.3 1-.8 1-1.1 0-.2-.4-.4-1-.4-.5 0-1 .5-1 1.1zm39.9.2c.7.7 1.4.8 2.1.1.6-.6.2-1-1.2-1.1-1.6-.2-1.8.1-.9 1zm-55.1.4c-2.1.5-2.3 1.9-.4 2.6.7.3 2-.3 2.9-1.4 1.7-1.9 1.2-2.2-2.5-1.2zm67 1c.7.3 1.6.2 1.9-.1.4-.3-.2-.6-1.3-.5-1.1 0-1.4.3-.6.6zm3.8.9c-3 2.9-1.9 3.3 1.4.4 1.3-1.1 1.8-2 1.2-2-.6 0-1.8.7-2.6 1.6zm-79 3.6c.3.4 1.2.8 2 .8s1.3.4.9.9c-.3.5 0 1.1.7 1.4.7.2.4.3-.6.1-2.4-.4-5.6 1.3-5.6 2.9 0 .9.2.9.8 0 .4-.7 1.8-1.1 3.1-.8 1.4.3 3.4-.4 4.9-1.5 2.2-1.8 2.2-2.5 0-2.1-.5 0-.8-.5-.8-1.2s-1.3-1.2-2.9-1.2c-1.6-.1-2.7.3-2.5.7zM194 85v15h2.5c2.4 0 2.5-.2 2.5-6.5V87h3.3c1.8 0 4.1-.6 5-1.3 3.8-2.7 3.8-11.7 0-14.4-.9-.7-4.3-1.3-7.5-1.3H194v15zm10.4-10.4c1.9 1.8 2.1 6.5.4 8.2-.7.7-2.2 1.2-3.5 1.2-2.1 0-2.3-.4-2.3-5.5 0-4.8.3-5.5 1.9-5.5 1.1 0 2.7.7 3.5 1.6zm17.8-3.4c-1.6 1.6-1.5 2.8.1 2.8.7 0 1.8-.9 2.5-2 1-1.6 1-2-.1-2-.7 0-1.8.5-2.5 1.2zM275 85c0 14.3.1 15 2 15s2-.7 2-15-.1-15-2-15-2 .7-2 15zm-140.1-5.1c-28.7 16.4-66.4 38.3-67.6 39.3-2 1.6-1.9 90.6.1 91.4.8.3 11.7-5.4 24.3-12.6 12.5-7.3 30.7-17.7 40.3-23.3 9.6-5.5 18.3-10.7 19.3-11.5 1.4-1.2 1.7-3.2 1.7-10.7 0-11-.9-12.4-6.1-9.6-1.9 1-16.4 9.3-32.2 18.5-15.8 9.1-29 16.6-29.3 16.6-.3 0-.4-2.6-.2-5.7l.3-5.7 14.5-8.4c8-4.6 22.4-12.9 32-18.4 9.6-5.5 18.3-10.9 19.3-12 2.2-2.6 2.5-18.9.4-20.6-1.6-1.4.8-2.6-35.9 18.6-16.3 9.5-30 17.2-30.3 17.2-.3 0-.5-2.6-.3-5.7l.3-5.7 32.1-18.5c17.7-10.2 32.9-19.2 33.8-20 2.1-1.8 2.4-19.2.3-21-1.1-.8-5 1-16.8 7.8zM88 73.6c0 .8.5 1.2 1 .9.6-.3 1-1 1-1.6 0-.5-.4-.9-1-.9-.5 0-1 .7-1 1.6zm11.8-.9c.7.3 1.6.2 1.9-.1.4-.3-.2-.6-1.3-.5-1.1 0-1.4.3-.6.6zM76 77.9c0 .5.7 1.2 1.6 1.5 2.4.9 2.8.7 1.4-.9-1.4-1.7-3-2-3-.6zM92 79c0 .5.7 1 1.5 1s1.5-.5 1.5-1c0-.6-.7-1-1.5-1s-1.5.4-1.5 1zm125 1c-2.7 2.7-2.5 4 .5 4 1.4 0 2.5-.4 2.5-.9 0-1.7 2.9-2 4.5-.5 2.6 2.7 1.7 4.1-2.9 4.8-5.3.8-7 2.6-7 7.3 0 4.3 2.7 6.7 6.4 5.8 1.4-.3 4-.6 5.8-.5l3.2.1V91c0-10.5-1.4-13-7.5-13-2.2 0-4.3.8-5.5 2zm8.5 12.9c0 2.8-2.5 4.7-4.9 3.8-2.1-.8-2.1-4.3.2-5.6 2.7-1.6 4.7-.8 4.7 1.8zm9.5-3.7c0 10.5.1 10.9 2.1 10.6 1.8-.3 2.1-1 2.2-8 .2-5.6.6-8.2 1.8-9.3 1.5-1.5 1.7-1.5 3.3 0 1.2 1.2 1.6 3.6 1.6 9.6 0 7.2.2 7.9 2 7.9 1.9 0 2-.7 2-9.1 0-12.2-.4-12.8-8.5-12.7l-6.5.1v10.9zm22-9.2c-1.6 1.6-2 3.3-2 9 0 6.3.3 7.4 2.6 9.7 2.1 2.1 3.2 2.4 6.2 1.9 3.6-.5 6.2-2.7 6.2-5.3 0-1.8-3.5-1.6-5 .2-1.7 2-3.7 1.9-4.8-.3-1.6-3-.3-4.2 4.9-4.2h4.9v-4.5c0-5.7-2.5-8.5-7.5-8.5-2.2 0-4.3.8-5.5 2zm8.8 5.2c.3 2.5 0 2.8-2.6 2.8-3.6 0-4-.4-3.4-3.6.4-2 1-2.5 3.1-2.2 2 .2 2.7.9 2.9 3zm20.7-5.8c-3 2.2-3.5 15.2-.7 18.6 3.7 4.6 13.2 2.7 13.2-2.7 0-1.8-3.7-1.6-4.8.3-1.4 2.5-4.7 1.3-5-1.9-.3-2.6-.2-2.7 4.7-2.7h5.1v-4.9c0-4-.4-5.3-2.2-6.5-2.8-2-7.8-2.1-10.3-.2zm8.5 6.1c0 2.1-.5 2.5-2.9 2.5-3.5 0-4.5-2-2.5-4.9 1.2-1.7 1.9-1.9 3.5-1.1 1.1.6 1.9 2.1 1.9 3.5zm10.6-5.6c-1.1 1.2-1.6 3.1-1.4 5.3.3 2.8.9 3.6 5.1 5.6 4.8 2.3 5.8 4.1 3.3 6.1-1.6 1.3-4.2.6-5-1.5-.8-2.1-3.6-1.7-3.6.5 0 2.8 2.8 4.6 7 4.6 4.4 0 7-1.9 7-5 0-4.1-1.2-5.7-5.6-7.6-3-1.2-4.4-2.4-4.4-3.8 0-2.7 3.1-3.6 5-1.4.8 1 2.1 1.8 2.9 1.8 2.3 0 2.4-2.2.2-4.4-2.7-2.7-8.2-2.8-10.5-.2zM58.9 95.2c0 .7-.2 2.1-.4 3-.4 2 0 2.1 3 .8 1.8-.8 1.8-.9-.5-1-2.2 0-2.3-.2-.7-1.1.9-.6 1.5-1.4 1.2-2-.9-1.3-2.5-1.1-2.6.3zm-19.1.5c.7.3 1.6.2 1.9-.1.4-.3-.2-.6-1.3-.5-1.1 0-1.4.3-.6.6zm27 0c.7.3 1.6.2 1.9-.1.4-.3-.2-.6-1.3-.5-1.1 0-1.4.3-.6.6zm-14.6.8c.2.1 1.3.8 2.6 1.4 1.8.9 2.2.9 2.2-.2 0-.9-1-1.5-2.5-1.5-1.4 0-2.5.2-2.3.3zM48 98.9c0 1.1 3.1 2.4 3.9 1.6.3-.3-.1-1-.9-1.5-1.9-1.2-3-1.2-3-.1zm146.7 10.8c-.4.3-.7 7.3-.7 15.5V140h7.5c6.8 0 7.5-.2 7.5-2 0-1.7-.7-2-5.1-2h-5l.3-4.8c.3-4.3.5-4.7 3.1-5 3.8-.5 3.6-3.2-.3-3.2-2.9 0-3-.1-3-5v-5h5c4.3 0 5-.3 5-2 0-1.8-.7-2-6.8-2-3.8 0-7.2.3-7.5.7zm173 0c-.3.5-.5 7.4-.5 15.5V140h4.8v-15.5c0-14.7-.1-15.5-1.9-15.5-1.1 0-2.2.3-2.4.7zM233 115c0 1.6-.4 3-1 3-.5 0-1 .7-1 1.5s.4 1.5.9 1.5 1.1 3.8 1.2 8.5c.4 9.1 1.2 10.5 5.7 10.5 1.5 0 2.2-.6 2.2-2 0-1.1-.7-2-1.5-2-1.2 0-1.5-1.5-1.5-7.5s.3-7.5 1.5-7.5c.8 0 1.5-.7 1.5-1.5s-.7-1.5-1.5-1.5c-1 0-1.5-1-1.5-3 0-2.5-.4-3-2.5-3s-2.5.5-2.5 3zm68-.5c0 1.3-.8 2.9-1.7 3.4-1.7 1-1.7 1.2 0 2.5 1.4 1.1 1.7 2.9 1.7 9.3 0 8.4.8 10.3 4.7 10.3 2.7 0 3.3-3.4.8-4.4-1.1-.4-1.5-2.2-1.5-7.6 0-5.6.3-7 1.5-7 .8 0 1.5-.7 1.5-1.5s-.7-1.5-1.5-1.5c-1 0-1.5-1-1.5-3 0-2.3-.4-3-2-3-1.5 0-2 .7-2 2.5zm-16.7 3.5c-3.2 1.3-4.3 4.1-4.3 11.2 0 8.4 1.6 10.8 7.4 10.8 4.5 0 7.6-2.2 7.6-5.3 0-2.3-2.8-2.1-4.8.4-3.2 3.9-6.2.6-6.2-6.9 0-6.4 3.6-9.4 6.2-5.2 1.6 2.5 4.8 2.6 4.8.2 0-3.9-6.4-7-10.7-5.2zm67.7.1c-2.6 1.1-4 2.6-4 4.6 0 1.8 3 1.6 5.2-.3 1.4-1.4 2-1.4 3.3-.4.8.7 1.5 2.1 1.5 3.1 0 1.5-.7 1.9-3.3 1.9-5 0-7.7 2.4-7.7 6.9 0 2.1.6 4.3 1.3 4.9.7.6 4.3 1 8 1h6.7V132c0-9.8-1-12.4-5.1-13.9-1.7-.6-3.2-1.1-3.3-1-.1 0-1.2.5-2.6 1zm5.8 14.5c-.4 3.8-3.5 5.5-5.3 3-1.9-2.6-.2-5.6 3.1-5.6 2.2 0 2.5.4 2.2 2.6zm24.7-14.8c-4.4.9-5.5 3.1-5.5 11.2 0 9.4 1.4 11.3 8.1 10.8 3.5-.2 4.6-.8 5.6-2.8 1.1-2.2 1-2.5-.7-2.8-1.1-.2-2.7.4-3.6 1.3-1.8 1.8-3.3 1.6-4.7-.7-2-3.1-.1-4.8 5.3-4.8h5v-3.8c0-6.3-3.7-9.5-9.5-8.4zm4.5 5.2c1.5 2.7.5 4-3.1 4-2.1 0-2.9-.5-2.9-1.8 0-4 4.2-5.5 6-2.2zm-171.9-3.7c-1.1 1.4-1.6 3.9-1.3 6.8.1.8 2.1 2.6 4.5 3.9 5 2.8 6 4 4.5 5.7-1.4 1.7-3.3 1.6-4.8-.2-1.4-1.7-5-2-5-.5 0 2.4 4.1 5 7.8 5 4.8 0 7.5-2.6 7-6.7-.2-2.2-1.3-3.3-5.1-5.3-3.5-1.9-4.7-3-4.5-4.5.4-2.5 3.8-3.2 5-1.1.9 1.6 4.8 2.3 4.8.8 0-.4-.7-1.8-1.6-3-1.2-1.7-2.5-2.2-5.8-2.2-2.4 0-4.9.6-5.5 1.3zM246 129c0 10.3.1 11 2 11 1.8 0 2-.7 2-7.1 0-7.9 1.1-10.9 4-10.9 1.3 0 2-.7 2-2 0-2.3-2.9-2.7-4.8-.8-.9.9-1.2.9-1.2 0 0-.7-.9-1.2-2-1.2-1.9 0-2 .7-2 11zm14-1.9c0 12.2.4 12.9 8.5 12.7l6.5-.1v-10.8c0-10.2-.1-10.9-2-10.9-1.8 0-2 .7-2 5.9 0 7.9-.9 11.8-2.8 12.6-2.9 1.1-4.2-2.4-4.2-10.7 0-7.1-.2-7.8-2-7.8-1.9 0-2 .7-2 9.1zm53 .8c0 6.7.4 10.2 1.3 10.9.6.5 4 1 7.5 1h6.2V118h-2.5c-2.5 0-2.5.1-2.5 8.4 0 6.2-.4 8.7-1.5 9.6-1.2 1-1.8 1-3 0-1.1-.9-1.5-3.4-1.5-9.6 0-7.7-.2-8.4-2-8.4-1.9 0-2 .7-2 9.9zm20 1.1c0 10.2.1 11 1.9 11 2 0 2.3-1.5 3.3-13.5.2-2.1 1.1-3.4 3.1-4.3 1.5-.7 2.7-2 2.7-2.8 0-1.7-3.1-1.9-4.8-.2-.9.9-1.2.9-1.2 0 0-.7-1.1-1.2-2.5-1.2H333v11zm64.4-8.6c-2.4 3.8-1.2 7 3.9 9.8 2.7 1.5 4.2 3 4.2 4.3 0 2.5-3.5 3.3-4.7 1.1-1.1-1.9-4.8-2.1-4.8-.3 0 4.5 9.3 6.4 13 2.7 3.6-3.6 2.4-7.3-3.4-10.2-4.8-2.4-5.9-3.8-4.4-5.5 1.4-1.8 3.5-1.6 4.6.3.5.9 1.8 1.4 3 1.2 1.9-.3 2-.5.9-2.8-1-2-2.1-2.6-5.9-2.8-4.1-.3-4.9 0-6.4 2.2zM29.3 139.5c0 2.2.2 3 .4 1.7.2-1.2.2-3 0-4-.3-.9-.5.1-.4 2.3z"/></g></svg>